<?xml version="1.0" encoding="utf-8"?>
<!-- Generator: Adobe Illustrator 26.3.1, SVG Export Plug-In . SVG Version: 6.00 Build 0)  -->
<svg version="1.1" id="Layer_1" xmlns="http://www.w3.org/2000/svg" xmlns:xlink="http://www.w3.org/1999/xlink" x="0px" y="0px"
	 viewBox="0 0 370 137.3" style="enable-background:new 0 0 370 137.3;" xml:space="preserve">
<style type="text/css">
	.st0{fill:#FFCB05;}
</style>
<path class="st0" d="M89.5,136.5c-0.5,0.1-1.1,0-1.6-0.3c-0.4-0.2-0.8-0.5-1-1c-0.2-0.2-0.5-0.6-0.9-1.3c-0.4-0.7-0.7-1.2-0.8-1.7
	c-0.2-1.4-0.4-2.7-0.6-3.9c-0.1-1.3-0.2-3.1-0.2-5.4c0-1.9,0.1-3.6,0.4-5c0.3-1.5,0.6-2.8,0.9-3.9c0.3-1.1,0.5-1.9,0.7-2.4
	c0.2-0.6,0.2-0.8,0.1-0.8c-0.2,0-0.3,0.2-0.5,0.6c-0.1,0.3-0.3,0.7-0.5,1.3c-0.2,0.5-0.4,1.1-0.6,1.7c-0.2,0.6-0.4,1.2-0.7,1.8
	c-0.5,1.4-1.1,2.8-1.8,4.4c-0.7,1.5-1.3,3-2,4.4c-0.7,1.4-1.3,2.7-1.8,3.7c-0.4,0.5-0.8,1.1-1.2,2c-0.5,0.8-0.9,1.7-1.5,2.5
	c-0.5,0.9-1.1,1.6-1.7,2.2c-0.9,1-1.8,1.6-2.8,1.8c-1,0.3-1.9,0.2-2.8-0.1c-0.4,0-0.9-0.2-1.4-0.6c-0.5-0.3-0.9-0.8-1.3-1.4
	c-0.3-0.6-0.4-1.1-0.3-1.6c-0.1-0.6-0.2-1.5-0.2-2.7c0-1.3,0-2.7,0.1-4.2c0.1-1.5,0.1-3,0.2-4.4c0.1-1.4,0.2-2.6,0.3-3.6
	c0.2-2.8,0.5-5.6,0.9-8.5c0.5-2.9,0.9-5.8,1.2-8.8c0.3-0.9,0.5-1.9,0.7-2.9c0.2-1.1,0.4-2.2,0.7-3.1c0-0.9,0.3-1.5,0.9-1.8
	c0.6-0.3,1.3-0.4,2-0.3c0.8,0.1,1.3,0.4,1.7,0.8c0.5,0.4,0.9,1,1.4,1.9c0.4,0.9,0.4,2-0.1,3.4c-0.7,2.1-1.3,4.8-1.9,7.8
	c-0.5,3-1,6.7-1.3,11c-0.1,1-0.2,2.2-0.3,3.5c-0.1,1.2-0.2,2.5-0.2,3.6c0,1.2-0.1,2.1-0.1,2.9c0,0.7,0.1,1.1,0.1,1.1
	c0.3,0.1,0.7-0.2,1-0.7c0.4-0.5,0.8-1.3,1.2-2.3c1.5-3,3-6,4.3-9c1.4-3,2.7-6.1,4.1-9.3c0.6-1.3,1.3-2.7,1.9-4.2
	c0.7-1.5,1.3-3,1.9-4.2c0.6-1.3,1.2-2.6,1.8-3.9c0.6-1.2,1.1-2.3,1.6-3.1c0.4-0.9,0.8-1.4,1-1.5c1.1-0.1,2,0.1,2.6,0.7
	c0.6,0.6,1.2,1.2,1.6,2.1c0.1,0.2,0.2,0.6,0.2,1.1c0.1,0.5,0.1,1-0.1,1.4c0,0.3-0.2,0.9-0.4,1.9c-0.2,1-0.4,2-0.6,3.2
	c-0.3,1.2-0.6,2.4-0.9,3.5c-0.2,1.1-0.4,2.1-0.4,2.8c-0.2,1.9-0.5,3.9-0.8,6.1c-0.3,2.2-0.6,4.4-0.9,6.6c-0.2,2.2-0.2,4.1-0.2,5.7
	c0,1.2,0.1,2,0.2,2.4c0.1,0.3,0.3,0.7,0.5,1.1c0.1,0.3,0.3,0.4,0.6,0.2c0.3-0.2,0.6-0.5,0.8-1c0.5-0.9,0.9-1.7,1.2-2.4
	c0.3-0.7,0.6-1.4,0.9-2.1c0.3-0.8,0.7-1.8,1.2-3c0.9-2,1.8-4.3,2.8-6.7c1-2.4,1.9-4.8,2.7-7.2c0.9-2.4,1.7-4.5,2.3-6.3
	c0.6-2.4,1.2-4.3,1.6-5.7c0.4-1.5,0.9-2.6,1.3-3.4c0.4-0.8,0.8-1.3,1.2-1.6c0.2-0.2,0.6-0.3,1.3-0.4c0.7-0.1,1.3,0.1,1.7,0.4
	c0.2,0.2,0.5,0.4,1,0.8s0.7,0.8,0.7,1.3c-0.2,0.7-0.5,1.8-1,3.4c-0.4,1.6-1,3.3-1.6,5.3c-0.6,1.9-1.2,3.7-1.8,5.5
	c-0.6,1.7-1,3.1-1.4,4.1c-0.4,0.9-0.8,1.7-1.2,2.4s-0.6,1.2-0.5,1.5c0,0.2-0.2,0.7-0.5,1.6c-0.4,0.9-0.8,2-1.4,3.3
	c-0.5,1.3-1.2,2.6-1.8,4c-0.7,1.4-1.3,2.6-1.9,3.8s-1.1,2.1-1.5,2.7c-1,1.4-2,2.6-3.2,3.6c-1.1,1-2.1,1.8-3,2.3
	C90.4,136.2,89.8,136.5,89.5,136.5z M113.7,130.3c-0.6,0-1,0-1.4-0.2c-0.3-0.2-0.7-0.5-1.2-0.8c-0.9-0.8-1.6-1.7-2.2-2.6
	c-0.5-0.9-0.8-1.8-0.7-2.5c0.1-0.3,0.1-0.7,0.1-1c0-0.3,0-0.5,0-0.5c-0.2-0.2-0.3-0.3-0.2-0.4c0.1-0.1,0.2-0.2,0.2-0.4
	c0.3,0,0.3-0.3,0.2-0.7c-0.1-0.3,0-1.1,0.2-2.2c0.3-1.2,0.7-2.3,1.3-3.4c0.2-0.4,0.6-1,1-1.7c0.5-0.8,1-1.5,1.5-2.2
	c0.6-0.8,1.1-1.4,1.6-1.9c1-1,1.9-1.8,2.8-2.4c0.9-0.6,1.8-1.1,2.7-1.4c0.9-0.3,1.9-0.5,2.8-0.5c1-0.1,1.9,0.2,2.6,0.8
	c1,0.4,1.7,0.9,2.2,1.6c0.5,0.7,0.8,1.6,1,2.7c0.2,1.3,0.2,2.9,0,4.8c-0.2,1.9-1.1,4.1-2.7,6.6c-0.9,1.6-1.9,2.9-2.9,3.8
	s-2,1.8-3.2,2.6c-0.8,0.7-1.8,1.1-2.8,1.3C115.7,130,114.7,130.1,113.7,130.3z M119.7,122c0.9-0.9,1.5-1.8,1.8-2.8
	c0.4-1,0.7-2.2,1.1-3.5c0.2-0.3,0.2-0.7,0.2-1.3c0-0.6,0-1.2-0.1-1.7c-0.1-0.6-0.3-0.9-0.5-1c-0.4-0.3-0.8-0.3-1.2-0.1
	c-0.4,0.2-0.8,0.5-1.4,0.9c-1.2,1.2-2.3,2.5-3.3,4c-1,1.4-1.6,3.2-1.9,5.2c0,1.1,0.1,1.9,0.5,2.4c0.4,0.5,1,0.6,1.8,0.3
	C117.6,124.1,118.5,123.3,119.7,122z M135.3,129.9c-0.8,0.3-1.5,0.1-2.2-0.5c-0.7-0.6-1.2-1.5-1.6-2.8c-0.3-1.3-0.4-2.7-0.2-4.3
	c0.2-0.5,0.3-1,0.4-1.5c0.1-0.5,0.1-0.9,0.1-1.2c0.1-0.4,0.2-1.1,0.4-1.9c0.2-0.9,0.4-1.8,0.6-2.7c0.2-0.9,0.4-1.7,0.7-2.4
	c0.2-0.7,0.4-1.2,0.5-1.4c0.2,0,0.3-0.2,0.4-0.5c0.1-0.3,0.1-0.6,0.1-0.9c0-0.3,0-0.7,0.1-1.2c0.1-0.4,0.3-0.7,0.4-0.9
	c0-0.2,0-0.4,0.1-0.7c0.1-0.3,0.2-0.5,0.1-0.7c0-0.2,0-0.3,0.1-0.5c0.1-0.2,0.2-0.4,0.2-0.5c0.3-0.6,0.6-1.5,1-2.7
	c0.4-1.3,0.8-2.7,1.3-4.2c0.5-1.5,0.9-3,1.3-4.5c0.4-1.5,0.7-2.7,0.9-3.7c0.3-1,0.4-1.7,0.4-1.9c0-0.3,0.1-0.7,0.3-1
	s0.5-0.5,0.9-0.5c0.1-0.1,0.4-0.2,0.9-0.3c0.5-0.1,0.8-0.2,0.9-0.2c0,0,0.1,0.1,0.3,0.2c0.2,0.2,0.5,0.4,0.8,0.7
	c0.4,0.3,0.7,0.6,1,0.9c0.4,0.4,0.6,0.8,0.6,1.3c0,0.6,0,1.1-0.1,1.6c-0.1,0.5-0.3,1.2-0.6,2.2c-0.3,0.9-0.8,2.2-1.5,4
	c-0.3,0.9-0.6,1.7-0.9,2.5c-0.3,0.8-0.5,1.2-0.5,1.4s-0.1,0.4-0.2,0.8c-0.1,0.3-0.2,0.8-0.4,1.3c-0.1,0.4-0.3,0.9-0.6,1.6
	c-0.2,0.7-0.5,1.4-0.8,2.2c-0.2,0.7-0.5,1.4-0.6,2c-0.2,0.5-0.3,0.8-0.3,0.9c0,0.2,0,0.3,0,0.5c0,0.2-0.1,0.3-0.2,0.5
	c-0.2,0-0.3,0.1-0.3,0.4c0,0.2,0,0.3,0,0.3c0,0.4-0.2,1.6-0.8,3.5c-0.5,2.4-1,4.6-1.4,6.6c-0.4,2-0.6,3.6-0.5,4.8
	c0.1,1,0,1.8-0.3,2.4C135.9,129.3,135.6,129.7,135.3,129.9z M151.4,126.3c-0.4,0.3-0.9,0.5-1.6,0.6c-0.6,0-1.1-0.2-1.6-0.6
	c-0.9-0.7-1.7-2.2-2.4-4.4c-0.8-2.3-1.3-5.3-1.6-9.3c0-1.8,0-3.4-0.1-4.9c-0.1-1.5-0.1-2.3-0.1-2.5c0.4-0.3,1-0.5,1.8-0.4
	c0.8,0,1.4,0.1,1.9,0.3c0.4,0.2,0.8,0.5,1,0.9c0.2,0.4,0.4,1.2,0.6,2.3c0.2,1.1,0.3,2.7,0.5,4.9c0,1.7,0,3.1,0,4.1
	c0,1,0.1,1.6,0.3,1.8c0.2,0.3,0.3,0.4,0.3,0.5c0,0,0.3-0.3,0.9-1c0.3-0.5,0.6-1.1,0.9-1.9c0.4-0.8,0.7-1.4,0.9-1.9
	c0.4-0.6,0.8-1.2,1.1-1.8c0.4-0.6,0.7-1,0.8-1.2c0.1-0.4,0.3-0.7,0.6-1c0.2-0.3,0.4-0.6,0.6-0.9c0.4-0.8,0.8-1.5,1.3-2.1
	c0.5-0.6,0.8-0.9,1-0.9c0.2,0.1,0.5,0.1,1-0.1c0.5-0.2,0.8-0.4,0.9-0.4c0.3-0.3,0.7-0.3,1.2-0.1c0.2,0.1,0.3,0.3,0.5,0.4
	c0.1,0.1,0.2,0.3,0.2,0.4c0,0.2-0.1,0.8-0.3,1.6c-0.2,0.8-0.4,1.7-0.6,2.5c-0.2,0.8-0.5,1.3-0.7,1.4c0,0-0.1,0.1-0.2,0.2
	c-0.1,0.1-0.3,0.3-0.4,0.5c-0.1,0.3-0.3,0.9-0.8,1.7c-0.4,0.8-0.9,1.7-1.6,2.8c-0.6,1-1.2,2.1-1.9,3.1c-0.7,1-1.2,1.9-1.7,2.6
	c-0.4,0.6-0.8,1.2-1.3,1.7C152.2,125.8,151.7,126.1,151.4,126.3z M171.5,127.6c-2.3,0.2-4.2-0.4-5.6-1.6c-1.3-1.3-2.1-3.3-2.3-6.1
	c-0.1-1.5,0-3.2,0.5-5.1c0.5-1.9,1.1-3.7,1.9-5.5c0.8-1.8,1.8-3.4,2.9-4.8c1-1.4,2.1-2.4,3.2-3c0.4-0.2,0.8-0.4,1.3-0.5
	c0.5-0.2,1-0.3,1.5-0.3c0.5,0,1.1,0,1.7,0c0.6,0,1.2,0.1,1.8,0.2c1,0.2,1.9,0.7,2.7,1.5c0.8,0.8,1.3,2,1.4,3.6c0,0.4,0,0.9,0,1.4
	c-0.1,0.5-0.2,1-0.3,1.4c-0.4,1.4-1.2,2.8-2.3,4.2c-1,1.4-2.1,2.3-3.3,2.9c-0.3,0.2-0.7,0.3-1,0.5c-0.3,0.1-0.6,0.1-1,0.1
	c-0.9,0.1-1.7,0-2.5-0.2c-0.7-0.2-1.4-0.5-2-0.9l-0.5-0.4l-0.3,0.7c-0.2,0.8-0.4,1.5-0.5,2.1c0,0.6-0.1,1,0,1.2c0,0.5,0.1,1,0.2,1.6
	c0.1,0.5,0.2,0.9,0.5,1.2c0.2,0.2,0.4,0.4,0.7,0.5c0.3,0.1,0.7,0.1,1.1,0.1c0.3,0,0.5,0,0.7-0.1c0.3-0.1,0.5-0.1,0.6-0.2
	c0.8-0.2,1.4-0.6,1.8-1c0.5-0.5,1-0.9,1.5-1.2l0.2-0.1l-0.1-0.2c0.7-0.4,1.2-0.7,1.4-0.8c0.2-0.1,0.4-0.3,0.6-0.4
	c0.2-0.2,0.3-0.3,0.6-0.3c0.6-0.1,1.2,0,1.8,0.4c0.6,0.3,1,0.8,1,1.4c0,0.3-0.1,0.7-0.5,1.3c-0.3,0.6-0.7,1.2-1.2,1.8
	c-0.5,0.5-1,1-1.5,1.3c-0.1,0.1-0.2,0.1-0.4,0.2c-0.1,0.1-0.2,0.1-0.4,0.2l0.1,0c-0.3,0.5-0.7,0.8-1.1,0.9l-0.5,0
	c-0.1,0.3-0.7,0.7-1.6,1.1C173.3,127.3,172.4,127.5,171.5,127.6z M173.7,112c0.4,0,0.7-0.1,1-0.3c0.3-0.2,0.6-0.3,0.9-0.5
	c1-0.8,1.6-1.8,1.8-3c0.2-1.2,0-2-0.5-2.6c-0.1-0.1-0.2-0.2-0.3-0.2c-0.1-0.1-0.3-0.1-0.5-0.1c-0.5,0-1,0.2-1.6,0.6
	c-0.5,0.3-1.1,0.8-1.6,1.4c-0.5,0.6-1,1.3-1.4,2.1l-0.7,1.4c0.1,0,0.1-0.1,0.2-0.1c0.1,0,0.1-0.1,0.2-0.1c0.4,0,0.6,0.1,0.8,0.3
	c0.1,0.2,0.3,0.5,0.5,0.7C172.8,111.9,173.2,112,173.7,112z M188.2,124.2c-0.3,0-0.7-0.2-1.3-0.5c-0.5-0.4-0.8-0.8-0.9-1.1
	c-0.2-0.3-0.2-0.8-0.1-1.5c0.1-0.7,0.3-1.5,0.5-2.4c0.2-1.4,0.4-2.5,0.5-3.1c0.1-0.6,0.2-1.2,0.3-1.7c0.1-0.5,0.2-1.2,0.4-2.1
	c0.2-0.6,0.4-1.1,0.5-1.6c0.1-0.6,0.3-1.1,0.4-1.7c0.2-0.6,0.4-1.1,0.6-1.7c0.2-1.1,0.5-2.2,0.9-3.2c0.4-1.1,0.8-1.9,1.2-2.7
	c0.1-0.1,0.2-0.4,0.5-0.7c0.3-0.4,0.5-0.6,0.7-0.6c0.3-0.4,0.8-0.5,1.4-0.4c0.6,0,1.1,0.2,1.6,0.5c0.6,0.5,0.9,1.2,1,1.9
	c0.1,0.7-0.1,1.8-0.7,3.1c-0.4,1.4-0.8,2.4-1.2,3.2c-0.4,0.8-0.7,1.6-1.1,2.6c0.4-0.7,0.9-1.5,1.6-2.2c0.6-0.8,1.1-1.4,1.5-1.8
	c0.5-0.6,1-1.1,1.4-1.5c0.5-0.4,1.1-0.9,1.9-1.6c0.7-0.6,1.4-1.1,2.1-1.6c0.7-0.5,1.6-0.7,2.7-0.6c0.4-0.1,0.9,0.1,1.4,0.5
	c0.5,0.4,1,1,1.3,1.8c0.4,0.7,0.4,1.5,0.2,2.4c-1-0.1-1.9,0-2.6,0.3c-0.7,0.3-1.4,0.7-1.9,1.1c-0.5,0.4-0.9,0.7-1.1,1
	c-0.4,0.3-0.9,0.7-1.4,1.1c-0.5,0.4-1.1,0.9-1.7,1.5c-0.6,0.5-1.2,1.1-1.9,1.7c-1,0.9-1.7,1.7-2.1,2.4c-0.5,0.7-0.8,1.4-1.1,2.1
	c-0.2,0.7-0.5,1.4-0.8,2.4c-0.3,0.9-0.6,1.8-0.9,2.5c-0.3,0.7-0.5,1.2-0.7,1.3c-0.2,0.4-0.6,0.7-1.3,0.8
	C188.9,124.4,188.4,124.4,188.2,124.2z M211.1,121.4c-0.2,0-0.5-0.1-1.1-0.3c-0.6-0.2-0.9-0.3-0.9-0.3c0-0.2-0.1-0.4-0.2-0.6
	c-0.1-0.2-0.2-0.5-0.2-0.6c-0.3-0.1-0.6-0.4-1-0.8c-0.3-0.4-0.4-0.8-0.3-1.3c0.2-0.5,0.5-1.2,0.9-2.2c0.4-1,0.8-2.1,1.2-3.4
	c0.5-1.3,0.9-2.5,1.3-3.7c0.4-1.2,0.7-2.2,1-3c0.3-0.9,0.4-1.4,0.5-1.6c0-0.2,0-0.5,0-0.9c0.1-0.4,0.3-0.8,0.7-1.1
	c0.5-0.4,1.1-0.5,1.7-0.2c0.6,0.3,1.2,0.9,1.7,1.7c0.5,0.8,0.8,1.7,0.9,2.8c0,0.3-0.1,1.1-0.5,2.3c-0.3,1.2-0.8,2.7-1.4,4.4
	c-0.6,1.7-1.2,3.4-1.9,5.2c-0.5,1.3-1,2.2-1.3,2.7C212,121.1,211.6,121.3,211.1,121.4z M218,96.3c-0.5,0-1.1-0.2-1.9-0.6
	c-0.7-0.4-1.4-1-2-1.6c-0.6-0.7-0.9-1.4-1-2.2c0-0.2,0.1-0.6,0.5-1.2c0.3-0.6,0.7-1.2,1-1.8c0.3-0.6,0.5-0.9,0.5-1
	c0.3,0,0.7,0,1.2,0.1c0.5,0.1,0.9,0.2,1.2,0.4c0.5,1,1.2,1.9,2.1,2.6c0.8,0.7,1.3,1.5,1.3,2.4s-0.1,1.7-0.5,2.2
	C219.9,95.9,219.1,96.2,218,96.3z M243.6,119.5c-0.9,0-1.7-0.1-2.4-0.4c-0.6-0.3-1.2-0.9-1.6-1.9c-0.2-0.7-0.4-1.4-0.4-2.1
	c0-0.8,0-1.5,0-2.2c0-0.7,0-1.4,0-1.9c0-0.1,0-0.3,0-0.5c0-0.3,0-0.5-0.1-0.7c-0.1-0.6-0.3-1-0.6-1.1c-0.2-0.2-0.6-0.1-1.1,0.1
	c-0.9,0.5-1.8,1.1-2.8,1.9c-1,0.8-2,1.6-3.1,2.7c-1,1-2.1,2-3.2,3.1c-0.9,1.1-1.5,2-1.9,2.6c-0.4,0.7-0.8,1-1.3,1.1
	c-0.3,0.2-0.7,0.2-1.1,0c-0.4-0.2-0.8-0.5-1.3-0.8c-0.3-0.3-0.7-0.7-1.2-1.2c-0.4-0.5-0.7-0.9-0.8-1c-0.1-0.7-0.1-1.3,0-1.9
	c0.1-0.6,0.2-1.1,0.4-1.8c0.2-0.6,0.5-1.3,0.7-2.1c0.1-0.3,0.3-0.6,0.4-0.9c0.1-0.4,0.3-0.7,0.5-1.1c0.1-0.6,0.3-1.3,0.6-2.1
	c0.3-0.8,0.5-1.5,0.8-2.2c0.4-1.1,0.7-2.1,0.9-3c0.2-0.8,0.3-1.7,0.4-2.7c0-0.1,0-0.2,0-0.4c0.1-0.2,0.2-0.3,0.4-0.3l0.1,0l0.1,0
	c0.3-0.2,0.8-0.3,1.7-0.2c0.9,0.1,1.5,0.2,2,0.6c1,0.7,1.5,1.7,1.5,2.9c0.1,1.2-0.5,2.9-1.6,5c-0.2,0.7-0.5,1.4-0.8,2
	c-0.3,0.6-0.4,1-0.4,1.2c0,0,0.2-0.1,0.5-0.4c0.3-0.3,0.7-0.6,1.1-1c0.4-0.4,0.8-0.7,1.1-1c0.2-0.2,0.6-0.6,1.3-1.3
	c0.7-0.6,1.4-1.3,2.2-2c0.8-0.7,1.4-1.2,1.9-1.6c0.4-0.4,1-0.8,1.7-1.2c0.7-0.4,1.1-0.7,1.3-0.7c0.4,0,0.9,0.1,1.6,0.3
	c0.7,0.3,1.3,0.6,1.8,1c0.6,0.3,0.9,0.7,1,1c0,0.2,0,0.4,0,0.7c0,0.3,0,0.5,0,0.7c0,0.7,0,1.5,0.1,2.5c0.1,0.9,0.2,1.9,0.3,2.9
	c0.1,0.9,0,1.8-0.1,2.6c0,0,0,0,0.1,0.1c0,0,0.1,0.1,0.1,0.2c0,0-0.1,0.1,0,0.3c0,0.1,0.1,0.1,0.1,0.1c0.1,0.3,0.2,0.6,0.3,0.9
	c0.2,0.3,0.3,0.6,0.5,1c0.2,0.3,0.4,0.8,0.7,1.3c0,0.6-0.3,1.1-0.8,1.7C244.7,119,244.2,119.4,243.6,119.5z M263.4,118.3
	c-1.2,0.8-2.6,1.3-4,1.6c-1.4,0.2-2.7,0.1-4-0.3c-1.3-0.4-2.3-1.1-3.2-2c-0.5-0.5-0.9-1.4-1.4-2.5c-0.5-1.2-0.7-2.9-0.6-5
	c0.1-2,0.6-4,1.3-6.1c0.8-2.1,1.9-3.9,3.2-5.6c1.3-1.6,2.7-2.8,4.4-3.5c0.6-0.3,1.2-0.5,1.8-0.6c0.6-0.2,1.5-0.3,2.5-0.2
	c1,0.1,1.9,0.2,2.7,0.6c0.8,0.3,1.4,0.6,1.7,1c0.7,0.6,1.2,1.3,1.5,1.9c0.3,0.6,0.4,1.2,0.4,1.8c-0.1,1.4-0.6,2.9-1.5,4.5
	c-0.9,1.6-2.2,2.9-3.9,3.8c-0.7,0.4-1.5,0.6-2.5,0.8c-1,0.2-2.3,0.1-4.1-0.1c-1-0.1-1.7,0-2,0.5c-0.3,0.4-0.3,1.3-0.2,2.5
	c0.1,0.8,0.4,1.4,0.7,2c0.3,0.5,0.9,0.9,1.7,1c1,0.1,1.7,0.1,2.1-0.1c0.4-0.2,0.9-0.5,1.5-0.8c0.3-0.2,0.6-0.5,0.9-0.8
	c0.3-0.3,0.6-0.6,0.9-0.8c0.3-0.3,0.6-0.5,0.8-0.6c0.2-0.2,0.4-0.3,0.6-0.4c0.2-0.1,0.4-0.1,0.6-0.1c0.5,0,0.9,0.2,1.4,0.7
	c0.5,0.4,0.8,0.9,0.9,1.3c0,0.3-0.1,0.8-0.5,1.5c-0.4,0.6-0.9,1.3-1.6,2C264.9,117.1,264.2,117.7,263.4,118.3z M261.5,104.1
	c0.3-0.2,0.7-0.5,1.2-1c0.6-0.5,1.1-1,1.5-1.6c0.4-0.6,0.6-1,0.6-1.3c0-0.5-0.4-0.8-1-1.1c-0.6-0.3-1.4-0.3-2.4,0
	c-0.3,0.1-0.7,0.4-1.2,0.8c-0.4,0.4-0.9,0.9-1.3,1.4c-0.4,0.5-0.8,1-1.1,1.5c-0.3,0.5-0.5,0.8-0.6,1.1c0.2,0.2,0.5,0.3,1.1,0.4
	c0.5,0.1,1.1,0.1,1.7,0.1C260.5,104.3,261.1,104.3,261.5,104.1z M278.5,118.9c-1.4,0.1-2.6-0.1-3.8-0.6c-1.2-0.6-2.1-1.3-2.9-2.1
	c-0.8-0.9-1.2-1.8-1.2-2.6c0-0.4,0-0.7,0.1-0.8c0.2-0.2,0.4-0.3,0.7-0.3c0.2,0,0.5,0.1,0.8,0.3c0.3,0.1,0.6,0.3,0.9,0.5
	c0.7,0.4,1.5,0.7,2.3,0.7c0.8,0.1,1.5,0,2.2-0.3c0.6-0.3,1-0.7,1-1.2c0-0.2-0.1-0.5-0.3-1.1c-0.2-0.5-0.5-1.1-0.8-1.5
	c-1.2-1.5-2-2.9-2.3-4.3c-0.4-1.4-0.6-2.9-0.8-4.3c0-0.6,0.2-1.3,0.7-2c0.5-0.8,1.1-1.6,1.9-2.4c0.8-0.8,1.8-1.6,2.8-2.4
	c1.1-0.8,2.1-1.4,3.1-2c1-0.5,1.9-0.9,2.6-1c0.8-0.1,1.6-0.1,2.4-0.1c0.9,0,1.5,0.1,1.8,0.3c0.6,0.4,1.2,1.1,1.8,2.2
	c0.6,1,0.9,1.9,1,2.6c0,0.3-0.1,0.8-0.5,1.3c-0.3,0.5-0.6,1-0.8,1.7c-0.1,0.3-0.3,0.6-0.4,1c-0.1,0.4-0.2,0.7-0.4,1.1
	c-0.2,0.6-0.7,0.9-1.3,0.9c-0.6-0.1-1.3-0.4-1.9-0.9c-0.6-0.6-0.9-1.2-1-2c0-0.6,0.1-1.2,0.5-1.7c0.3-0.5,0.5-0.8,0.5-1
	c0-0.1-0.1-0.1-0.1-0.2c-0.1,0-0.2,0-0.5,0c-0.3,0-0.8,0.2-1.4,0.5c-0.6,0.3-1.3,0.6-2,1.1c-0.7,0.5-1.3,1-1.9,1.7
	c-0.4,0.5-0.7,1-1,1.6c-0.2,0.5-0.3,1.1-0.3,1.7c0,0.6,0.2,1.3,0.5,2.1c0.3,0.7,0.6,1.4,1,1.9c0.1,0.1,0.2,0.3,0.4,0.7
	c0.2,0.3,0.5,0.7,0.8,1.2c1.8,3.1,2.2,5.5,1.3,7.2C283.2,117.7,281.3,118.6,278.5,118.9z"/>
<path class="st0" d="M12.7,58.7c-0.4,0.4-0.6,0.8-0.7,1.4c0,0.5-0.1,1-0.2,1.5c-0.1,0.5-0.3,1-0.6,1.4c-0.3,0.4-0.8,0.5-1.6,0.6
	c-0.2,0.2-0.2,0.3-0.1,0.4c0.1,0,0.2,0.2,0.4,0.5c-0.6,0-1,0-1.2,0.2c-0.2,0.2-0.5,0.3-0.9,0.4c-1-0.2-1.8-0.7-2.5-1.4
	c-0.7-0.7-1.3-1.6-1.9-2.4c-0.5-0.9-1-1.8-1.5-2.7c-0.4-0.9-0.8-1.7-1.2-2.4C0.6,56,0.7,56,0.9,56c0.1,0,0.2,0,0.4,0
	c-0.2-0.4-0.4-0.8-0.5-1.3c-0.2-0.5-0.4-1-0.7-1.3c1-2.7,2.1-5.4,3.3-8.3c1.2-2.9,2.3-5.9,3.5-8.8c1.2-3,2.4-6,3.5-9
	c1.2-3.1,2.3-6,3.4-9c1.2,0.3,2.4,0.7,3.5,1.2c1.2,0.5,2.2,1,3.2,1.7c1,0.7,1.8,1.5,2.5,2.4c0.7,0.9,1.3,2,1.6,3.2
	c-0.1,0.3-0.2,0.3-0.3,0.3c-0.1-0.1-0.2,0-0.3,0.1c0.2,0.2,0.3,0.4,0.4,0.5c0,0.1,0.1,0.2,0,0.3c0,0.1,0,0.2,0,0.4
	c0,0.2,0.1,0.4,0.4,0.7c-0.2,0-0.4,0-0.4,0.2c-0.1,0.1-0.2,0.1-0.4,0c0.3,0.6,0.3,1,0.3,1.4s-0.2,0.7-0.3,1
	c-0.1,0.3-0.3,0.6-0.4,0.9c-0.1,0.3,0,0.7,0.2,1.2c-0.2,0-0.3,0.1-0.4,0.2c0,0-0.1,0.1-0.1,0.2c0,0.1-0.1,0.2-0.2,0.3
	c0,0-0.1,0.1-0.3,0c0.2,1.1,0.3,2.2,0.4,3.3c0,1.1,0.1,2.2,0.1,3.4c0,1.1,0.1,2.3,0.3,3.5c0.1,1.2,0.4,2.4,0.8,3.7
	c1.7-1.2,3-2.6,4-4.4c1-1.7,1.7-3.7,2.2-5.7c0.5-2.1,0.8-4.3,1-6.7c0.2-2.4,0.4-4.8,0.6-7.2c0.4-0.5,0.7-1.1,0.9-1.8
	c0.2-0.7,0.4-1.4,0.5-2.1c0.2-0.7,0.3-1.4,0.4-2.2c0.2-0.8,0.4-1.4,0.7-2.1c0.8,0,1.4,0.2,1.9,0.5c0.6,0.3,1.1,0.6,1.6,1.1
	c0.5,0.4,1,0.7,1.5,1.1s1.2,0.5,1.9,0.6c0.6,0.8,1.2,1.6,1.8,2.3c0.6,0.7,1,1.5,1.2,2.5c-0.2,0.4-0.4,0.9-0.5,1.4
	c-0.1,0.5-0.2,1-0.3,1.5c-0.1,0.5-0.2,1-0.5,1.4c-0.2,0.4-0.5,0.8-1,1.1c0,1.3-0.1,2.4-0.3,3.5c-0.2,1.1-0.3,2.2-0.4,3.2
	c-0.1,1.1-0.2,2.1-0.3,3.3C41,41,41,42.2,41.1,43.5c-0.3,1.2-0.6,2.5-1,3.8c-0.4,1.3-0.6,2.5-0.7,3.6c-0.7,0.7-1.3,1.5-1.7,2.4
	c-0.4,0.9-0.8,1.9-1.2,2.8c-0.2,0.2-0.3,0.2-0.4,0.2c-0.1-0.1-0.2-0.2-0.6-0.2c0.1,0.4,0,0.6-0.2,0.8c-0.2,0.1-0.1,0.4,0.1,0.9
	c-0.7,0.4-1.3,0.9-1.8,1.4c-0.5,0.6-1.1,1.1-1.7,1.6c-0.6,0.5-1.3,0.9-2.2,1.1c-0.8,0.2-1.9,0.1-3.3-0.3c-2.1-1.3-4.1-2.9-5.9-4.8
	c-1.8-1.8-3.2-4-4.4-6.6c-0.4,0.2-0.7,0.4-0.9,0.9S15,52,14.9,52.5c-0.1,0.5-0.3,0.9-0.4,1.3c-0.1,0.4-0.4,0.6-0.7,0.6
	c-0.1,0.4-0.2,0.7-0.4,1.1c-0.2,0.3-0.4,0.6-0.6,1c-0.2,0.3-0.3,0.7-0.4,1C12.4,57.9,12.4,58.3,12.7,58.7z M80.5,40.8
	c0,0.5,0.1,1,0.2,1.4c0.2,0.4,0.3,0.9,0.5,1.3c0.2,0.4,0.5,0.8,0.7,1.3c0.2,0.4,0.4,0.9,0.5,1.3c0.1,0.6,0.2,1.2,0.1,1.9
	c0,0.7-0.1,1.3-0.3,2c-0.2,0.6-0.4,1.2-0.7,1.8c-0.3,0.5-0.7,0.9-1.1,1.2c-0.5,0.8-1.2,1.4-2,1.9c-0.8,0.5-1.5,1-2.2,1.7
	c-0.4,0.3-0.9,0.6-1.5,0.7c-0.5,0.2-1.1,0.3-1.7,0.5c-0.4,0.3-1,0.6-1.6,0.9c-0.6,0.3-1.2,0.6-1.9,0.9c-0.6,0.3-1.3,0.5-2,0.6
	c-0.7,0.1-1.2,0.2-1.7,0.2c-1.2,0.5-2.4,0.9-3.6,1.1c-1.2,0.3-2.5,0.3-4.1,0.1c-1.5,0.3-2.9,0.4-4.2,0.1c-1.3-0.2-2.4-0.7-3.5-1.3
	c-1-0.7-1.9-1.5-2.8-2.4c-0.8-1-1.4-2-2-3.1c-0.5-2.3-0.6-4.5-0.2-6.4c0.4-2,0.9-3.8,1.7-5.5c0.8-1.7,1.8-3.3,2.9-4.8
	c1.1-1.5,2.2-3,3.2-4.4c0.3,0.1,0.4,0.1,0.6,0c0.2-0.1,0.3-0.3,0.4-0.5c0.1-0.2,0.2-0.4,0.3-0.6c0.2-0.2,0.3-0.3,0.5-0.4
	c0.2-0.6,0.6-1.1,1.1-1.5c0.6-0.4,1-0.9,1.3-1.5c0.4-0.1,0.7-0.3,0.9-0.4c0.2-0.2,0.5-0.4,0.6-0.6c0.2-0.2,0.5-0.4,0.7-0.6
	c0.2-0.2,0.5-0.4,0.8-0.5l-0.1-0.7c0.7-0.4,1.2-0.8,1.5-1.2c0.3-0.5,0.7-1.1,1.2-1.7c0.4-0.1,0.7-0.1,0.9-0.1c0.2,0,0.6-0.1,1.1-0.2
	c0.3-0.6,0.5-1.1,0.8-1.4c0.3-0.3,0.7-0.7,1.2-1c0.5,0.2,1.1,0.3,1.7,0.4c0.6,0,1.2,0.3,1.7,0.7c0.1,0.4,0.2,0.7,0.4,1
	c0.2,0.2,0.5,0.4,0.7,0.6c0.3,0.1,0.5,0.3,0.7,0.5c0.3,0.2,0.5,0.5,0.6,0.8c0.2,0,0.3,0,0.3-0.1c0.1-0.1,0.2-0.1,0.4-0.1
	c0.2,0.6,0.3,1,0.5,1.2c0.2,0.2,0.4,0.5,0.6,1c-0.2,0.4-0.3,0.9-0.4,1.3c-0.1,0.4-0.3,0.8-0.7,1c0,0.3,0.1,0.5,0.3,0.5
	c0.2,0,0.3,0.1,0.4,0.3c0.1,0.4,0,0.6-0.1,0.8c1.1,1.5,2.1,3.2,3.1,5C78.3,37.6,79.4,39.2,80.5,40.8z M73.1,47.3
	c0.1-0.5,0.3-0.9,0.5-1.2c0.3-0.3,0.4-0.8,0.4-1.3c-0.2-0.3-0.4-0.6-0.4-0.7c-0.1-0.2-0.1-0.5-0.1-0.9c-1-1.2-1.9-2.5-2.7-3.9
	c-0.8-1.4-1.6-2.8-2.6-4c-0.1,0.2-0.2,0.3-0.4,0.5c-0.2,0.2-0.4,0.2-0.7-0.1c-0.1,0.3-0.2,0.6-0.4,0.8c-0.2,0.1-0.4,0.2-0.7,0.2
	c-0.3,0-0.5-0.1-0.8-0.1c-0.3-0.1-0.5-0.2-0.7-0.4c-1.1,1-2.3,2.1-3.4,3.1c-1.1,1-2.1,2.1-3,3.4c-0.2,0.1-0.3,0.1-0.3,0.1
	c0,0-0.2,0-0.4,0.1c-0.3,0.8-0.6,1.6-1.1,2.3c-0.4,0.7-0.8,1.3-1.2,2c-0.4,0.7-0.7,1.4-1,2.2c-0.3,0.8-0.4,1.7-0.4,2.7
	c0.7,0.5,1.6,0.8,2.6,0.9c1,0.1,1.9,0,2.9-0.2c1-0.2,2-0.4,3-0.6c1-0.3,1.9-0.5,2.7-0.5c1.7-0.5,3.2-1.2,4.4-2
	C70.6,48.9,71.8,48.1,73.1,47.3z M113.8,52.6c-0.2-0.4-0.5-0.9-0.7-1.3c-0.2-0.4-0.5-0.8-0.7-1.1c-0.6-1-1.1-1.8-1.5-2.6
	c-0.4-0.8-0.9-1.6-1.3-2.7c0.1-0.7,0.2-1.9,0.4-3.6c0.2-1.7,0.4-3.5,0.7-5.5c0.3-2,0.6-4.1,0.9-6.1c0.3-2.1,0.7-3.9,1.1-5.3
	c0.4-1.3,0.8-2.7,1.2-4.2c0.5-1.5,1-2.9,1.6-4.1c0.6-1.3,1.3-2.4,2-3.3c0.7-0.9,1.5-1.5,2.4-1.7c0.3,0.3,0.6,0.6,0.9,0.7
	c0.3,0.1,0.6,0.2,0.8,0.3c0.8,0.9,1.5,1.7,2.2,2.4c0.7,0.6,1.6,1.2,2.5,1.8c-0.2,1.3-0.4,2.7-0.8,4.3c-0.3,1.5-0.7,3.1-1.2,4.7
	c-0.4,1.6-0.8,3.1-1.2,4.6c-0.4,1.4-0.7,2.7-0.9,3.8c-0.2,0.8-0.4,1.8-0.5,2.9c-0.1,0.9-0.3,2-0.4,3.4c-0.1,1.3-0.2,2.7-0.3,4.3
	c0.6-0.2,1.2-0.6,1.9-1.1c0.7-0.6,1.4-1.1,1.9-1.7c0.7-0.7,1.4-1.4,2-2.2c0.9-1,1.6-2,2.2-2.8c0.6-0.8,1.1-1.7,1.6-2.6
	c0.5-0.9,1-1.9,1.5-2.9c0.5-1.1,1.2-2.4,1.9-3.8c0.7-1.3,1.3-2.6,2-4c0.7-1.4,1.5-2.8,2.2-4.1c0.7-1.3,1.5-2.5,2.2-3.6
	c0.7-1.1,1.4-2,2-2.7c0.5,0.4,1,0.9,1.7,1.3c0.7,0.5,1.4,0.8,2.1,0.9c0.3,0.4,0.6,0.8,0.9,1.2c0.3,0.3,0.6,0.6,0.9,0.9
	c0.4,0.4,0.7,0.8,1,1.2c0.3,0.4,0.6,0.7,0.8,1.2c0,0.3-0.1,0.8-0.2,1.3c0,0.5-0.1,1.2-0.2,1.8c-0.1,0.6-0.2,1.3-0.3,2
	c-0.1,0.7-0.2,1.3-0.2,2c-0.3,1.9-0.5,3.3-0.6,4.3c-0.1,1-0.2,1.7-0.3,2.3c0,0.5-0.1,1-0.1,1.4c0,0.4,0.1,0.9,0.1,1.6
	c0,0.5,0.1,1,0.2,1.5c0.1,0.5,0.2,0.9,0.4,1.4c0.2,0.4,0.4,0.9,0.7,1.3l2.8-2.5c0.8-0.7,1.5-1.6,2.2-2.8c0.7-1.2,1.4-2.6,2-4.1
	c0.6-1.6,1.2-3.2,1.8-5c0.6-1.8,1.1-3.6,1.7-5.5c0.4-1.4,0.8-2.7,1.2-4c0.4-1.4,0.9-2.7,1.3-3.9c0.5-1.2,0.9-2.4,1.3-3.4
	c0.5-1,0.9-1.9,1.4-2.6c1.2,0.6,2.2,1.3,3,1.9c0.9,0.6,1.6,1.4,2.3,2.2c0.7,0.8,1.2,1.7,1.7,2.8c0.5,1.1,0.8,2.3,1.1,3.8
	c-0.8,1.8-1.5,3.7-2.2,5.6s-1.3,3.8-2,5.7c-0.8,2.5-1.7,5-2.6,7.5c-0.9,2.4-1.9,4.8-3,7.1s-2.4,4.4-3.9,6.3c-1.4,1.9-3.2,3.6-5.1,5
	C154,54,153.5,54,153,54c-0.5,0-0.8,0.1-1.2,0.3c-0.3,0.1-0.5,0.3-0.8,0.6c-1.8-0.7-3.2-1.7-4.4-3.2c-1.2-1.5-2.3-3.2-3.4-5
	c-0.1-0.3-0.3-0.5-0.5-0.8c-0.1-0.3-0.3-0.6-0.5-0.8l-1.2-1.9l-0.7-1.1l-0.8,0.9l-1.2,1.3l-0.7,0.8c-1.2,1.3-2.4,2.6-3.7,3.8
	c-1.2,1.2-2.6,2.4-3.9,3.4c-1.4,1-2.9,1.9-4.5,2.6c-1.6,0.7-3.3,1.1-5.2,1.3c-0.3-0.1-0.7-0.3-1-0.4c-0.3-0.1-0.5-0.2-0.8-0.3
	c-1-0.4-1.8-0.8-2.5-1.1C115.5,54,114.7,53.5,113.8,52.6z M207.7,31.3c0,0.5,0.1,1,0.2,1.4c0.2,0.4,0.3,0.9,0.5,1.3
	c0.2,0.4,0.5,0.8,0.7,1.3s0.4,0.9,0.5,1.3c0.1,0.6,0.2,1.2,0.1,1.9c0,0.7-0.1,1.3-0.3,2c-0.2,0.6-0.4,1.2-0.7,1.8
	c-0.3,0.5-0.7,0.9-1.1,1.2c-0.5,0.8-1.2,1.4-2,1.9c-0.8,0.5-1.5,1-2.2,1.7c-0.4,0.3-0.9,0.6-1.5,0.7c-0.5,0.2-1.1,0.3-1.7,0.5
	c-0.4,0.3-1,0.6-1.6,0.9c-0.6,0.3-1.2,0.6-1.9,0.9c-0.6,0.3-1.3,0.5-2,0.6c-0.7,0.1-1.2,0.2-1.7,0.2c-1.2,0.5-2.4,0.9-3.6,1.1
	c-1.2,0.3-2.5,0.3-4.1,0.1c-1.5,0.3-2.9,0.4-4.2,0.1c-1.3-0.2-2.4-0.7-3.5-1.3c-1-0.7-1.9-1.5-2.8-2.4c-0.8-1-1.4-2-2-3.1
	c-0.5-2.3-0.6-4.5-0.2-6.4c0.4-2,0.9-3.8,1.7-5.5c0.8-1.7,1.8-3.3,2.9-4.8c1.1-1.5,2.2-3,3.2-4.4c0.3,0.1,0.4,0.1,0.6,0
	c0.2-0.1,0.3-0.3,0.4-0.5c0.1-0.2,0.2-0.4,0.3-0.6c0.2-0.2,0.3-0.3,0.5-0.4c0.2-0.6,0.6-1.1,1.1-1.5c0.6-0.4,1-0.9,1.3-1.5
	c0.4-0.1,0.7-0.3,0.9-0.4s0.5-0.4,0.6-0.6c0.2-0.2,0.5-0.4,0.7-0.6c0.2-0.2,0.5-0.4,0.8-0.5l-0.1-0.7c0.7-0.4,1.2-0.8,1.5-1.2
	c0.3-0.5,0.7-1.1,1.2-1.7c0.4-0.1,0.7-0.1,0.9-0.1c0.2,0,0.6-0.1,1-0.2c0.3-0.6,0.5-1.1,0.8-1.4c0.3-0.3,0.7-0.7,1.2-1
	c0.5,0.2,1.1,0.3,1.7,0.4c0.6,0,1.2,0.3,1.7,0.7c0.1,0.4,0.2,0.7,0.4,1c0.2,0.2,0.5,0.4,0.7,0.6c0.3,0.1,0.5,0.3,0.7,0.5
	c0.3,0.2,0.5,0.5,0.6,0.8c0.2,0,0.3,0,0.3-0.1c0.1-0.1,0.2-0.1,0.4-0.1c0.2,0.6,0.3,1,0.5,1.2c0.2,0.2,0.4,0.5,0.6,1
	c-0.2,0.4-0.3,0.9-0.4,1.3c-0.1,0.4-0.3,0.8-0.7,1c0,0.3,0.1,0.5,0.3,0.5c0.2,0,0.3,0.1,0.4,0.3c0.1,0.4,0,0.6-0.1,0.8
	c1.1,1.5,2.1,3.2,3.1,5C205.5,28.1,206.6,29.8,207.7,31.3z M200.3,37.8c0.1-0.5,0.3-0.9,0.5-1.2c0.3-0.3,0.4-0.8,0.4-1.3
	c-0.2-0.3-0.4-0.6-0.4-0.7c-0.1-0.2-0.1-0.5-0.1-0.9c-1-1.2-1.9-2.5-2.7-3.9c-0.8-1.4-1.6-2.8-2.6-4c-0.1,0.2-0.2,0.3-0.4,0.5
	c-0.2,0.2-0.4,0.2-0.7-0.1c-0.1,0.3-0.2,0.6-0.4,0.8c-0.2,0.1-0.4,0.2-0.7,0.2c-0.3,0-0.5-0.1-0.8-0.1c-0.3-0.1-0.5-0.2-0.7-0.4
	c-1.1,1-2.3,2.1-3.4,3.1c-1.1,1-2.1,2.1-3,3.4c-0.2,0.1-0.3,0.1-0.3,0.1c0,0-0.2,0-0.4,0.1c-0.3,0.8-0.6,1.6-1.1,2.3
	c-0.4,0.7-0.8,1.3-1.2,2c-0.4,0.7-0.7,1.4-1,2.2c-0.3,0.8-0.4,1.7-0.4,2.7c0.8,0.5,1.6,0.8,2.6,0.9c1,0.1,1.9,0,2.9-0.2
	c1-0.2,2-0.4,3-0.6c1-0.3,1.9-0.5,2.7-0.5c1.7-0.5,3.2-1.2,4.4-2C197.8,39.4,199,38.6,200.3,37.8z M222.4,42.5c-0.3,1.7-0.7,3-1,3.9
	c-0.3,0.9-0.7,1.8-1.4,2.7c-0.5,0-0.9,0-1.1,0.3c-0.2,0.2-0.4,0.4-0.6,0.6c-0.4,0.1-0.6,0.1-0.8,0.1c-0.2-0.1-0.3-0.2-0.5-0.3
	c-0.1-0.1-0.3-0.2-0.5-0.3c-0.2-0.1-0.4-0.1-0.8-0.1c-0.1-0.3-0.2-0.6-0.4-0.9c-0.1-0.3-0.4-0.4-0.8-0.3c0.1-0.3,0.1-0.6,0-0.8
	c-0.1-0.2-0.1-0.4-0.2-0.6c-0.1-0.2-0.1-0.4-0.2-0.6c-0.1-0.2-0.1-0.5,0-0.8c-0.2,0-0.4-0.1-0.5-0.4c-0.1-0.3-0.3-0.6-0.5-0.8
	c0.1-0.8,0.1-1.5,0.2-2.1c0.1-0.7,0.2-1.3,0.3-1.9c0.2-0.6,0.3-1.2,0.4-1.8c0.1-0.6,0-1.2-0.3-1.8c0.2,0.1,0.3,0.1,0.4-0.1
	c0.1-0.2,0.1-0.5,0.1-0.8c0-0.3,0-0.6,0-0.9c0-0.3-0.1-0.6-0.1-0.8c0.3-1.1,0.6-2.2,0.8-3.4c0.2-1.2,0.4-2.3,0.5-3.5
	c0.2-1.1,0.3-2.3,0.5-3.4s0.4-2.1,0.8-3.1c0.5-0.1,1-0.1,1.5,0.1c0.6,0.1,1,0.3,1.1,0.6c1-0.9,1.9-2,2.6-3.2
	c0.7-1.3,1.5-2.5,2.3-3.7c0.8-1.2,1.7-2.3,2.6-3.2c1-1,2.3-1.6,3.9-1.9c0.9,0.6,1.8,1.1,2.9,1.7c1.1,0.5,2,1.3,2.7,2.3
	c0.3,0.1,0.6,0.3,0.9,0.5c0.3,0.1,0.6,0.3,0.9,0.5l0.1,0.7c0.5,0.4,1,0.9,1.3,1.5c0.4,0.6,0.7,1.2,1,1.9c0.3,0.6,0.6,1.3,0.9,2
	c0.3,0.6,0.6,1.3,1,1.9c-0.1,0.2-0.1,0.4-0.1,0.6c0,0.1,0,0.3,0.1,0.4c0.1,0.2,0.2,0.3,0.2,0.5c0.1,0.2,0.1,0.4,0.1,0.7
	c0,1.8-0.5,3.4-1.5,4.6c-1,1.2-2.2,2.2-3.6,3.1c-1.4,0.8-3,1.5-4.7,2.2c-1.7,0.6-3.2,1.3-4.5,2c0,0.2,0.1,0.2,0.2,0.2
	c0.2,0,0.2,0.1,0.2,0.3c1,0.5,1.9,1,2.5,1.3c0.6,0.3,1.2,0.6,1.7,0.8c0.6,0.2,1.1,0.4,1.7,0.6c0.6,0.1,1.5,0.3,2.6,0.4
	c1.1,0.2,1.9,0.3,2.5,0.4c0.6,0.1,1.2,0.2,1.7,0.2c0.5,0,1,0.1,1.5,0.1c0.5,0,1.3,0,2.3,0c0.4,0.3,0.7,0.8,1,1.3
	c0.3,0.5,0.6,1,0.7,1.5c0.1,0.5,0.2,1,0.2,1.5c0,0.5-0.1,0.8-0.4,1.2c0.1,0.1,0.1,0.2,0.3,0.2c0.2-0.1,0.3-0.1,0.5,0
	c-0.2,0.2-0.4,0.4-0.6,0.7c-0.1,0.3-0.3,0.5-0.4,0.8c-0.1,0.3-0.3,0.5-0.5,0.7c-0.2,0.2-0.5,0.4-0.8,0.4c-1.3,0.6-2.9,0.7-4.9,0.4
	c-2-0.3-4.5-0.9-7.6-1.8c-1.5-0.5-2.8-0.9-3.8-1.2c-0.9-0.4-1.8-0.8-2.5-1.1c-0.7-0.4-1.4-0.8-2-1.3C224,43.7,223.3,43.1,222.4,42.5
	z M229.8,20.4c-0.4,0.7-0.9,1.3-1.4,1.9c-0.5,0.6-1,1.2-1.5,1.8c-0.5,0.6-0.9,1.2-1.2,2c-0.4,0.7-0.6,1.5-0.7,2.4
	c1.4-0.3,2.9-0.8,4.5-1.5c1.5-0.8,3-1.5,4.3-2.2c-0.3-1.3-0.8-2.3-1.6-3C231.3,21.1,230.6,20.6,229.8,20.4z M257,39.9
	c-0.3,1.7-0.7,3-1,3.9c-0.3,0.9-0.7,1.8-1.4,2.7c-0.5,0-0.9,0-1.1,0.3c-0.2,0.2-0.4,0.4-0.6,0.6c-0.4,0.1-0.6,0.1-0.8,0.1
	c-0.2-0.1-0.3-0.2-0.5-0.3c-0.1-0.1-0.3-0.2-0.5-0.3c-0.2-0.1-0.4-0.1-0.8-0.1c-0.1-0.3-0.2-0.6-0.4-0.9c-0.1-0.3-0.4-0.4-0.8-0.3
	c0.1-0.3,0.1-0.6,0-0.8c-0.1-0.2-0.1-0.4-0.2-0.6c-0.1-0.2-0.1-0.4-0.2-0.6c-0.1-0.2-0.1-0.5,0-0.8c-0.2,0-0.4-0.1-0.5-0.4
	c-0.1-0.3-0.3-0.6-0.5-0.8c0.1-0.8,0.1-1.5,0.2-2.1c0.1-0.7,0.2-1.3,0.3-1.9c0.2-0.6,0.3-1.2,0.4-1.8c0.1-0.6,0-1.2-0.3-1.8
	c0.2,0.1,0.3,0.1,0.4-0.1c0.1-0.2,0.1-0.5,0.1-0.8c0-0.3,0-0.6,0-0.9c0-0.3-0.1-0.6-0.1-0.8c0.3-1.1,0.6-2.2,0.8-3.4
	c0.2-1.2,0.4-2.3,0.5-3.5c0.2-1.1,0.3-2.3,0.5-3.4c0.2-1.1,0.4-2.1,0.8-3.1c0.5-0.1,1-0.1,1.5,0.1c0.6,0.1,1,0.3,1.1,0.6
	c1-0.9,1.9-2,2.6-3.2c0.7-1.3,1.5-2.5,2.3-3.7c0.8-1.2,1.7-2.3,2.6-3.2c1-1,2.3-1.6,3.9-1.9c0.9,0.6,1.8,1.1,2.9,1.7
	c1.1,0.5,2,1.3,2.7,2.3c0.3,0.1,0.6,0.3,0.9,0.5c0.3,0.1,0.6,0.3,0.9,0.5l0.1,0.7c0.5,0.4,1,0.9,1.3,1.5c0.4,0.6,0.7,1.2,1,1.9
	c0.3,0.6,0.6,1.3,0.9,2c0.3,0.6,0.6,1.3,1,1.9c-0.1,0.2-0.1,0.4-0.1,0.6c0,0.1,0,0.3,0.1,0.4c0.1,0.2,0.2,0.3,0.2,0.5
	c0.1,0.2,0.1,0.4,0.1,0.7c0,1.8-0.5,3.4-1.5,4.6c-1,1.2-2.2,2.2-3.6,3.1c-1.4,0.8-3,1.5-4.7,2.2c-1.7,0.6-3.2,1.3-4.5,2
	c0,0.2,0.1,0.2,0.2,0.2c0.2,0,0.2,0.1,0.2,0.3c1,0.5,1.9,1,2.5,1.3c0.6,0.3,1.2,0.6,1.7,0.8c0.6,0.2,1.1,0.4,1.7,0.6
	c0.6,0.1,1.5,0.3,2.6,0.4c1.1,0.2,1.9,0.3,2.5,0.4c0.6,0.1,1.2,0.2,1.7,0.2c0.5,0,1,0.1,1.5,0.1c0.5,0,1.3,0,2.3,0
	c0.4,0.3,0.7,0.8,1,1.3c0.3,0.5,0.6,1,0.7,1.5c0.1,0.5,0.2,1,0.2,1.5c0,0.5-0.1,0.8-0.4,1.2c0.1,0.1,0.1,0.2,0.3,0.2
	c0.2-0.1,0.3-0.1,0.5,0c-0.2,0.2-0.4,0.4-0.6,0.7c-0.1,0.3-0.3,0.5-0.4,0.8c-0.1,0.3-0.3,0.5-0.5,0.7c-0.2,0.2-0.5,0.4-0.8,0.4
	c-1.3,0.6-2.9,0.7-4.9,0.4c-2-0.3-4.5-0.9-7.6-1.8c-1.5-0.5-2.8-0.9-3.8-1.2c-0.9-0.4-1.8-0.8-2.5-1.1c-0.7-0.4-1.4-0.8-2-1.3
	C258.5,41.1,257.8,40.6,257,39.9z M264.3,17.9c-0.4,0.7-0.9,1.3-1.4,1.9c-0.5,0.6-1,1.2-1.5,1.8c-0.5,0.6-0.9,1.2-1.2,2
	c-0.4,0.7-0.6,1.5-0.7,2.4c1.4-0.3,2.9-0.8,4.5-1.5c1.5-0.8,3-1.5,4.3-2.2c-0.3-1.3-0.8-2.3-1.6-3C265.9,18.5,265.1,18.1,264.3,17.9
	z M294.8,39.2c0.3,1.2,0.3,2.2,0,2.9c-0.3,0.7-0.7,1.3-1.4,1.7c-0.6,0.4-1.3,0.7-2.1,0.8s-1.6,0.1-2.4,0.1c-0.5-0.6-0.9-1.2-1.3-2.1
	c-0.4-0.8-0.8-1.7-1.1-2.6c-0.4-0.9-0.7-1.8-1-2.7c-0.3-0.9-0.5-1.7-0.7-2.4c0.2-0.5,0.3-1.1,0.2-1.7c0-0.7,0-1.3,0-2
	c0-0.7,0-1.3-0.1-2c0-0.7,0-1.4,0-2c0.2-1.8,0.5-3.5,0.9-5.1c0.5-1.6,0.8-3.3,1-5c0.1-0.4,0-0.7-0.2-1.1c-0.1-0.3-0.2-0.6-0.1-0.9
	c0-0.2,0.1-0.3,0.4-0.3c0.2-0.1,0.3-0.3,0.3-0.5c0.1-0.5,0.1-0.8,0-1.1c-0.1-0.3,0-0.6,0.2-1.1c0.2-0.3,0.4-0.8,0.6-1.5
	c0.3-0.7,0.4-1.4,0.2-2.1c0.4-0.3,0.7-0.6,1-1c0.3-0.4,0.6-0.7,0.9-0.9c0.4-0.3,0.7-0.6,1.1-0.8c0.4-0.2,1-0.4,1.6-0.4
	c0.4,0.4,0.6,0.8,0.7,1.3c0.2,0.5,0.3,1,0.4,1.5c0.2,0.5,0.4,1,0.6,1.4c0.2,0.4,0.6,0.7,1.1,0.9c0,0.3,0.1,0.7,0.1,1.2
	c0,0.5,0.1,1,0.2,1.5c0.1,0.5,0.2,0.9,0.3,1.3c0.2,0.4,0.5,0.6,0.8,0.7c-0.6,2.1-1.2,4.1-1.7,6.1c-0.5,2-0.9,4-1.1,6
	c-0.3,2-0.4,4-0.4,6C294,35.2,294.3,37.2,294.8,39.2z M334.5,5.4c0.1,0.3,0.1,0.5,0.1,0.7c0,0.1,0,0.3,0,0.4c0,0.1,0,0.3,0,0.4
	c0,0.1,0.1,0.3,0.2,0.6c-0.8,1.5-1.7,2.5-2.8,3.2c-1.1,0.6-2.3,1-3.6,1.4c-1.3,0.3-2.7,0.6-4.1,1c-1.4,0.4-2.7,1-4,1.9
	c-0.6-0.2-1.1-0.1-1.5,0.1c-0.4,0.2-1,0.3-1.9,0.3c-0.2,0.3-0.5,0.5-0.9,0.6c-0.4,0.1-0.7,0.2-1.1,0.4c0.2,0.4,0.3,0.8,0.3,1.2
	c0,0.4,0.1,0.7,0.3,0.9c1.5,0,3.1-0.1,4.8-0.4c1.8-0.3,3.5-0.5,5.2-0.7c0.1,0.2,0,0.4,0,0.4c-0.1,0-0.1,0.2,0,0.3
	c0.3,0.2,0.6,0.4,0.9,0.7c0.3,0.3,0.6,0.5,0.9,0.8c0.3,0.3,0.6,0.5,0.9,0.7c0.3,0.1,0.7,0.2,1.1,0.1c0.2,0.3,0.3,0.7,0.4,1.1
	c0.1,0.4,0.1,0.8,0,1.2c-0.6,0.5-1.3,1-1.9,1.6c-0.6,0.5-1.3,1-2,1.4c-0.7,0.4-1.4,0.8-2.2,1.1c-0.8,0.3-1.7,0.4-2.7,0.4
	c-0.2,0-0.4,0-0.5,0c-0.1,0-0.2,0-0.4-0.2c-0.3,0.2-0.8,0.3-1.4,0.3c-0.6,0-1,0.1-1.4,0.3c-0.5-0.2-1-0.2-1.7-0.1
	c-0.6,0-1.2,0-1.7-0.1c-0.6,0.9-1.1,1.9-1.6,2.9s-0.9,2.1-1.2,3.3c1.4,0.1,2.6,0.1,3.5,0c1-0.1,1.8-0.2,2.7-0.4
	c0.8-0.2,1.7-0.4,2.5-0.5c0.9-0.2,2-0.3,3.3-0.4c0.8-0.5,1.8-0.9,2.9-1.1c1.2-0.3,2.2-0.6,3.1-1c0.3,0.1,0.6,0.3,0.9,0.6
	c0.3,0.3,0.5,0.5,0.8,0.8c0.3,0.2,0.5,0.4,0.8,0.6c0.3,0.2,0.6,0.2,1,0.2c0.2,0.2,0.3,0.4,0.4,0.6c0.1,0.2,0.2,0.4,0.2,0.6
	c0.1,0.2,0.1,0.4,0.2,0.5c0.1,0.1,0.3,0.1,0.6,0.1c-0.5,1.4-1.2,2.5-1.9,3.3c-0.7,0.8-1.6,1.4-2.6,1.8c-1,0.5-2.2,0.8-3.4,1.1
	c-1.2,0.3-2.6,0.7-4.1,1.1c-0.4,0.1-0.7,0.1-0.9,0c-0.3-0.1-0.5-0.1-0.9-0.1c-0.9,0.3-2.1,0.6-3.4,0.8c-1.3,0.3-2.7,0.4-4,0.5
	c-1.4,0.1-2.7,0-4-0.3c-1.3-0.2-2.3-0.7-3.2-1.4c-0.4-0.3-0.6-0.6-0.8-0.9c-0.1-0.4-0.4-0.7-0.9-0.9c-0.1-0.5-0.2-1.1-0.4-1.8
	c-0.2-0.7-0.4-1.3-0.5-2c-0.2-0.7-0.3-1.5-0.5-2.2c-0.1-0.7-0.1-1.4,0-1.9c0.1-0.6,0.3-1.2,0.6-1.7c0.4-0.5,0.5-1.1,0.3-1.7
	c0.2-0.1,0.3-0.2,0.3-0.3c0-0.2,0.2-0.3,0.5-0.3c0.2-0.8,0.4-1.5,0.7-2.2c0.2-0.7,0.5-1.4,0.7-2c0.3-0.6,0.6-1.3,0.8-1.9
	c0.3-0.7,0.5-1.4,0.8-2.3c-0.6-0.5-1.1-1-1.4-1.6c-0.3-0.6-0.5-1.3-0.7-1.9c-0.2-0.7-0.3-1.3-0.5-2c-0.1-0.7-0.3-1.4-0.6-2.1
	c0.4-0.7,0.8-1.2,1.4-1.6c0.6-0.5,1.2-0.8,1.9-1.1c0.7-0.3,1.4-0.6,2.3-0.8c0.8-0.2,1.7-0.5,2.6-0.8c1.6-0.7,3.1-1.2,4.3-1.6
	c1.3-0.4,2.6-0.7,3.8-1c1.3-0.3,2.6-0.6,3.9-0.9c1.4-0.3,2.9-0.6,4.6-1.1c0.4,0.3,0.8,0.5,1.1,0.5c0.1-0.4,0.3-0.5,0.5-0.4
	c0.3,0.1,0.4,0,0.3-0.4c0.5,0.7,1,1.2,1.7,1.7C333,4.7,333.7,5.1,334.5,5.4z M334.6,12.4c0.2-0.9,0.6-1.7,1.2-2.3
	c0.6-0.7,1.3-1.2,2-1.7c0.8-0.5,1.5-1,2.3-1.3c0.8-0.4,1.6-0.7,2.3-0.9c1.6-0.8,3.3-1.6,5.1-2.4c1.9-0.8,3.8-1.5,5.7-2.2
	c2-0.6,4-1.1,6-1.4c2.1-0.3,4.3-0.2,6.6,0.3c0.2,0.4,0.4,0.8,0.6,1.1c0.3,0.4,0.6,0.7,0.8,1.1c0.3,0.4,0.6,0.7,0.8,1.1
	c0.2,0.3,0.4,0.7,0.5,1c0.4,0.3,0.8,0.7,1.1,1.2c0.3,0.4,0.4,1,0.2,1.7c-0.4,0.4-0.8,0.7-1.2,1c-0.4,0.3-0.8,0.5-1.2,0.8
	c-1.6-0.3-3.1-0.3-4.7,0c-1.6,0.2-3,0.5-4.2,0.6c-0.4-0.3-0.9-0.5-1.4-0.5c-0.5,0-1,0.2-1.6,0.4c-0.5,0.2-1.1,0.4-1.6,0.6
	c-0.5,0.2-1,0.3-1.5,0.2c-0.4,0.4-0.9,0.6-1.5,0.8c-0.6,0.1-1.2,0.3-1.9,0.4c0,0.2,0,0.4,0.2,0.4c0.1,0,0.2,0.2,0.1,0.4
	c0.3,0.3,0.6,0.5,1,0.6c0.4,0.1,0.8,0.2,1.3,0.3c0.5,0.1,0.9,0.2,1.2,0.4c0.3,0.1,0.6,0.4,0.8,0.8c0.6,0,1.2,0.1,1.7,0.3
	c0.5,0.3,0.9,0.6,1.2,1c0.3,0.4,0.6,0.8,0.7,1.3c0.2,0.4,0.3,0.9,0.3,1.2c0.1,0.3,0.3,0.5,0.5,0.4c0.2-0.1,0.4,0,0.6,0.2
	c0.2,0.5,0.5,1.1,1.1,1.6c0.5,0.5,1,1.1,1.3,1.7c0.2,1,0.3,2,0.4,2.8c0.1,0.8,0,1.6-0.3,2.5c-0.5,1.6-1.3,3-2.3,4.3
	c-1,1.3-2.2,2.5-3.5,3.5c-1.3,1-2.7,1.9-4.2,2.7c-1.5,0.8-3,1.5-4.5,2c-0.2,0-0.3,0-0.5,0c-0.2,0.1-0.2,0-0.1-0.3
	c-0.3,0.3-0.7,0.5-1.1,0.6c-0.4,0.1-0.8,0.2-1.2,0.2c-0.5,0-0.9,0-1.4,0c-0.5,0-0.9,0-1.3,0.2c-0.3-0.3-0.6-0.5-0.9-0.8
	c-0.2-0.2-0.4-0.6-0.6-1c-0.2,0-0.3-0.1-0.3-0.3c0-0.2,0-0.3-0.2-0.3c0.2-0.4,0.3-0.7,0.3-0.7c0-0.1-0.1-0.1-0.2-0.2
	c-0.1,0-0.2-0.1-0.3-0.1c-0.1-0.1-0.1-0.2-0.1-0.3c0.1-0.3,0.2-0.7,0.1-1.1c-0.1-0.5-0.2-0.9-0.2-1.4c-0.1-0.5-0.1-0.9,0-1.3
	c0.1-0.4,0.4-0.8,0.9-1.1c1.4,0.1,2.8-0.1,4-0.4c1.3-0.4,2.4-0.9,3.5-1.5c1.1-0.6,2.1-1.2,3.1-1.9c1-0.7,2-1.3,2.9-1.8
	c0.1-0.4,0.2-0.7,0.4-1c0.2-0.3,0.5-0.5,0.7-0.7c0.2-0.2,0.4-0.5,0.6-0.7c0.2-0.3,0.3-0.6,0.4-1c0-0.3-0.1-0.5-0.3-0.5
	c-0.2-0.1-0.3-0.2-0.3-0.5l-0.7-0.1c-0.8-0.4-1.7-0.7-2.8-0.9c-1-0.3-1.9-0.5-2.6-0.9c-0.4,0.3-0.9,0.4-1.3,0.3
	c-0.4-0.1-0.9-0.2-1.5-0.3c-1.4,0-2.8,0-4.1-0.1c-1.3-0.1-2.6-0.4-3.8-0.8c-0.1-0.2-0.2-0.4-0.4-0.5c-0.1-0.2-0.4-0.2-0.7-0.1
	c-0.3-0.3-0.5-0.6-0.8-0.9c-0.3-0.3-0.5-0.7-0.8-1c0-0.5,0.1-0.9,0.1-1.3c0-0.4-0.1-0.7-0.5-1c0.1-0.6,0.2-1,0.3-1.3
	C334.7,13.4,334.7,13,334.6,12.4z"/>
</svg>
